<?xml version="1.0" encoding="UTF-8" standalone="no"?>
<!-- Created with Inkscape (http://www.inkscape.org/) -->

<svg
   width="210mm"
   height="297mm"
   viewBox="0 0 210 297"
   version="1.1"
   id="svg1"
   sodipodi:docname="clouds.svg"
   inkscape:version="1.4 (e7c3feb1, 2024-10-09)"
   xmlns:inkscape="http://www.inkscape.org/namespaces/inkscape"
   xmlns:sodipodi="http://sodipodi.sourceforge.net/DTD/sodipodi-0.dtd"
   xmlns="http://www.w3.org/2000/svg"
   xmlns:svg="http://www.w3.org/2000/svg">
  <sodipodi:namedview
     id="namedview1"
     pagecolor="#ffffff"
     bordercolor="#000000"
     borderopacity="0.25"
     inkscape:showpageshadow="2"
     inkscape:pageopacity="0.0"
     inkscape:pagecheckerboard="0"
     inkscape:deskcolor="#d1d1d1"
     inkscape:document-units="mm"
     inkscape:zoom="0.44387846"
     inkscape:cx="264.7121"
     inkscape:cy="818.91786"
     inkscape:window-width="1512"
     inkscape:window-height="832"
     inkscape:window-x="0"
     inkscape:window-y="38"
     inkscape:window-maximized="1"
     inkscape:current-layer="layer1" />
  <defs
     id="defs1" />
  <g
     inkscape:label="Layer 1"
     inkscape:groupmode="layer"
     id="layer1">
    <path
       id="path7"
       style="fill:#052f63;fill-opacity:0.93050194;stroke-width:0.264583"
       d="M 173.15894 221.7384 A 25.333042 43.513222 0 0 0 152.94002 239.0743 A 27.717329 34.274117 0 0 0 137.99054 233.66016 A 27.717329 34.274117 0 0 0 114.55063 249.68192 A 21.16054 44.109295 0 0 0 100.43831 238.42886 A 21.16054 44.109295 0 0 0 86.652075 249.19719 A 36.658401 33.380009 0 0 0 68.846444 244.98556 A 36.658401 33.380009 0 0 0 32.187699 278.36544 A 36.658401 33.380009 0 0 0 68.846444 311.74531 A 36.658401 33.380009 0 0 0 83.500846 308.92378 A 21.16054 44.109295 0 0 0 100.43831 326.64725 A 21.16054 44.109295 0 0 0 120.758 294.68692 A 27.717329 34.274117 0 0 0 137.99054 302.20843 A 27.717329 34.274117 0 0 0 154.77608 295.10033 A 25.333042 43.513222 0 0 0 173.15894 308.76513 A 25.333042 43.513222 0 0 0 188.90165 299.28974 A 28.3134 40.532864 0 0 0 206.53881 308.16879 A 28.3134 40.532864 0 0 0 234.85233 267.63638 A 28.3134 40.532864 0 0 0 206.53881 227.10345 A 28.3134 40.532864 0 0 0 190.80541 234.04153 A 25.333042 43.513222 0 0 0 173.15894 221.7384 z " />
    <path
       id="path3"
       style="fill:#0b2548;fill-opacity:1;stroke-width:0.264583"
       d="m 34.274216,242.00487 a 21.756611,32.485901 0 0 0 -15.515849,9.73894 19.372326,28.611435 0 0 0 -12.4994952,-6.75825 19.372326,28.611435 0 0 0 -19.3724618,28.61118 19.372326,28.611435 0 0 0 19.3724618,28.61169 19.372326,28.611435 0 0 0 11.8798942,-6.02496 21.756611,32.485901 0 0 0 16.13545,10.79314 21.756611,32.485901 0 0 0 17.751371,-13.80639 22.650719,29.803579 0 0 0 20.099031,16.19074 22.650719,29.803579 0 0 0 15.783016,-8.58242 19.372326,22.948757 0 0 0 11.338328,4.41007 A 19.372326,22.948757 0 0 0 118.61842,282.23962 19.372326,22.948757 0 0 0 99.245962,259.29115 19.372326,22.948757 0 0 0 90.29922,261.9468 22.650719,29.803579 0 0 0 72.124618,249.75426 22.650719,29.803579 0 0 0 54.179461,261.37784 21.756611,32.485901 0 0 0 34.274216,242.00487 Z" />
  </g>
</svg>
