<?xml version="1.0" encoding="UTF-8" standalone="no"?>
<!-- Created with Inkscape (http://www.inkscape.org/) -->

<svg
   width="210mm"
   height="297mm"
   viewBox="0 0 210 297"
   version="1.1"
   id="svg1"
   sodipodi:docname="clouds.svg"
   inkscape:version="1.4 (e7c3feb1, 2024-10-09)"
   xmlns:inkscape="http://www.inkscape.org/namespaces/inkscape"
   xmlns:sodipodi="http://sodipodi.sourceforge.net/DTD/sodipodi-0.dtd"
   xmlns="http://www.w3.org/2000/svg"
   xmlns:svg="http://www.w3.org/2000/svg">
  <sodipodi:namedview
     id="namedview1"
     pagecolor="#ffffff"
     bordercolor="#000000"
     borderopacity="0.25"
     inkscape:showpageshadow="2"
     inkscape:pageopacity="0.0"
     inkscape:pagecheckerboard="0"
     inkscape:deskcolor="#d1d1d1"
     inkscape:document-units="mm"
     inkscape:zoom="0.44387846"
     inkscape:cx="264.7121"
     inkscape:cy="818.91786"
     inkscape:window-width="1512"
     inkscape:window-height="832"
     inkscape:window-x="0"
     inkscape:window-y="38"
     inkscape:window-maximized="1"
     inkscape:current-layer="layer1" />
  <defs
     id="defs1" />
  <g
     inkscape:label="Layer 1"
     inkscape:groupmode="layer"
     id="layer1">
    <path
       id="path4"
       style="fill:#163152;fill-opacity:0.85098;stroke-width:0.264583"
       d="M 209.81717 227.10345 A 30.399651 38.446613 0 0 0 181.38376 252.22698 A 28.3134 28.90947 0 0 0 171.37042 250.35009 A 28.3134 28.90947 0 0 0 143.05742 279.25944 A 28.3134 28.90947 0 0 0 143.08274 279.61962 A 16.690004 18.776255 0 0 0 137.09654 278.36544 A 16.690004 18.776255 0 0 0 120.4066 297.14155 A 16.690004 18.776255 0 0 0 137.09654 315.91767 A 16.690004 18.776255 0 0 0 153.2971 301.46532 A 28.3134 28.90947 0 0 0 171.37042 308.16879 A 28.3134 28.90947 0 0 0 193.14893 297.67279 A 30.399651 38.446613 0 0 0 209.81717 303.99643 A 30.399651 38.446613 0 0 0 240.21686 265.54968 A 30.399651 38.446613 0 0 0 209.81717 227.10345 z " />
    <path
       id="path7"
       style="fill:#163152;fill-opacity:0.85098;stroke-width:0.264583"
       d="M 3.5765259 231.87163 A 20.862505 36.062328 0 0 0 -17.286283 267.93403 A 20.862505 36.062328 0 0 0 3.5765259 303.99643 A 20.862505 36.062328 0 0 0 15.487944 297.45523 A 21.16054 19.074289 0 0 0 27.717171 301.01625 A 21.16054 19.074289 0 0 0 39.573295 297.70741 A 17.58411 14.90179 0 0 0 53.348165 303.4006 A 17.58411 14.90179 0 0 0 70.932621 288.49867 A 17.58411 14.90179 0 0 0 53.348165 273.59674 A 17.58411 14.90179 0 0 0 47.227608 274.56929 A 21.16054 19.074289 0 0 0 27.717171 262.86768 A 21.16054 19.074289 0 0 0 24.253817 263.15035 A 20.862505 36.062328 0 0 0 3.5765259 231.87163 z " />
  </g>
</svg>
