<?xml version="1.0" encoding="UTF-8" standalone="no"?>
<!-- Created with Inkscape (http://www.inkscape.org/) -->

<svg
   width="210mm"
   height="297mm"
   viewBox="0 0 210 297"
   version="1.1"
   id="svg1"
   sodipodi:docname="dark-clouds.svg"
   inkscape:version="1.4 (e7c3feb1, 2024-10-09)"
   xmlns:inkscape="http://www.inkscape.org/namespaces/inkscape"
   xmlns:sodipodi="http://sodipodi.sourceforge.net/DTD/sodipodi-0.dtd"
   xmlns="http://www.w3.org/2000/svg"
   xmlns:svg="http://www.w3.org/2000/svg">
  <sodipodi:namedview
     id="namedview1"
     pagecolor="#ffffff"
     bordercolor="#000000"
     borderopacity="0.25"
     inkscape:showpageshadow="2"
     inkscape:pageopacity="0.0"
     inkscape:pagecheckerboard="0"
     inkscape:deskcolor="#d1d1d1"
     inkscape:document-units="mm"
     inkscape:zoom="0.44387846"
     inkscape:cx="264.7121"
     inkscape:cy="818.91786"
     inkscape:window-width="1512"
     inkscape:window-height="832"
     inkscape:window-x="0"
     inkscape:window-y="38"
     inkscape:window-maximized="1"
     inkscape:current-layer="layer1" />
  <defs
     id="defs1" />
  <g
     inkscape:label="Layer 1"
     inkscape:groupmode="layer"
     id="layer1">
    <path
       id="path1"
       style="fill:#00052a;stroke-width:0.264583"
       d="M 218.75822 261.6755 A 42.321079 33.081974 0 0 0 178.50125 285.08027 A 38.148579 24.438932 0 0 0 149.61361 276.57743 A 38.148579 24.438932 0 0 0 114.35994 292.02972 A 19.372326 20.564468 0 0 0 98.053446 282.53831 A 19.372326 20.564468 0 0 0 88.435946 285.26269 A 34.572151 25.333042 0 0 0 55.434342 267.04055 A 34.572151 25.333042 0 0 0 25.337988 280.15551 A 28.015364 32.187866 0 0 0 5.9608765 271.21239 A 28.015364 32.187866 0 0 0 -22.054468 303.4006 A 28.015364 32.187866 0 0 0 5.9608765 335.5883 A 28.015364 32.187866 0 0 0 33.016073 311.54687 A 34.572151 25.333042 0 0 0 55.434342 317.70671 A 34.572151 25.333042 0 0 0 79.95791 310.00485 A 19.372326 20.564468 0 0 0 98.053446 323.66707 A 19.372326 20.564468 0 0 0 115.53145 311.91429 A 38.148579 24.438932 0 0 0 149.61361 325.45559 A 38.148579 24.438932 0 0 0 183.12887 312.49307 A 42.321079 33.081974 0 0 0 218.75822 327.83994 A 42.321079 33.081974 0 0 0 261.07915 294.75772 A 42.321079 33.081974 0 0 0 218.75822 261.6755 z " />
  </g>
</svg>
