<?xml version="1.0" encoding="UTF-8" standalone="no"?>
<!-- Created with Inkscape (http://www.inkscape.org/) -->

<svg
   width="210mm"
   height="297mm"
   viewBox="0 0 210 297"
   version="1.1"
   id="svg1"
   inkscape:version="1.4 (e7c3feb1, 2024-10-09)"
   sodipodi:docname="dark-clouds-upside-down.svg"
   xmlns:inkscape="http://www.inkscape.org/namespaces/inkscape"
   xmlns:sodipodi="http://sodipodi.sourceforge.net/DTD/sodipodi-0.dtd"
   xmlns="http://www.w3.org/2000/svg"
   xmlns:svg="http://www.w3.org/2000/svg">
  <sodipodi:namedview
     id="namedview1"
     pagecolor="#ffffff"
     bordercolor="#000000"
     borderopacity="0.25"
     inkscape:showpageshadow="2"
     inkscape:pageopacity="0.0"
     inkscape:pagecheckerboard="0"
     inkscape:deskcolor="#d1d1d1"
     inkscape:document-units="mm"
     inkscape:zoom="0.61334471"
     inkscape:cx="318.74409"
     inkscape:cy="268.20154"
     inkscape:window-width="1512"
     inkscape:window-height="832"
     inkscape:window-x="0"
     inkscape:window-y="38"
     inkscape:window-maximized="1"
     inkscape:current-layer="layer1" />
  <defs
     id="defs1" />
  <g
     inkscape:label="Layer 1"
     inkscape:groupmode="layer"
     id="layer1">
    <path
       id="path1"
       style="fill:#00052a;stroke-width:0.264583"
       d="M 96.628727 -12.941329 A 24.588539 18.11787 0 0 0 73.628581 -1.1430827 A 11.215824 12.941336 0 0 0 63.844165 -7.7649007 A 11.215824 12.941336 0 0 0 54.744979 -2.3383586 A 16.17667 11.000134 0 0 0 41.196452 -7.3334025 A 16.17667 11.000134 0 0 0 25.845968 0.26923421 A 19.196314 13.804091 0 0 0 8.4118896 -7.7649007 A 19.196314 13.804091 0 0 0 -10.784355 6.0394246 A 19.196314 13.804091 0 0 0 8.4118896 19.843233 A 19.196314 13.804091 0 0 0 27.107389 9.0573283 A 16.17667 11.000134 0 0 0 41.196452 14.666805 A 16.17667 11.000134 0 0 0 53.680444 10.634493 A 11.215824 12.941336 0 0 0 63.844165 18.117757 A 11.215824 12.941336 0 0 0 73.614628 11.464417 A 24.588539 18.11787 0 0 0 96.628727 23.294185 A 24.588539 18.11787 0 0 0 117.44554 14.76189 A 19.196314 19.843382 0 0 0 135.6682 28.47113 A 19.196314 19.843382 0 0 0 147.47214 24.217643 A 29.549383 18.549248 0 0 0 165.43331 28.039632 A 29.549383 18.549248 0 0 0 187.50277 21.765597 A 18.764938 20.706137 0 0 0 203.39482 31.490584 A 18.764938 20.706137 0 0 0 222.15957 10.784355 A 18.764938 20.706137 0 0 0 203.39482 -9.921875 A 18.764938 20.706137 0 0 0 188.66549 -1.9678385 A 29.549383 18.549248 0 0 0 165.43331 -9.0588786 A 29.549383 18.549248 0 0 0 148.83174 -5.8079142 A 19.196314 19.843382 0 0 0 135.6682 -11.215853 A 19.196314 19.843382 0 0 0 119.33794 -1.7569987 A 24.588539 18.11787 0 0 0 96.628727 -12.941329 z " />
  </g>
</svg>
